<?xml version="1.0" encoding="UTF-8" standalone="no"?>
<!-- Created with Inkscape (http://www.inkscape.org/) -->

<svg
   xmlns:dc="http://purl.org/dc/elements/1.1/"
   xmlns:cc="http://creativecommons.org/ns#"
   xmlns:rdf="http://www.w3.org/1999/02/22-rdf-syntax-ns#"
   xmlns:svg="http://www.w3.org/2000/svg"
   xmlns="http://www.w3.org/2000/svg"
   xmlns:xlink="http://www.w3.org/1999/xlink"
   version="1.1"
   width="128"
   height="128"
   id="svg2">
  <defs
     id="defs4">
    <linearGradient
       id="linearGradient4289">
      <stop
         id="stop4291"
         style="stop-color:#f7c71b;stop-opacity:1"
         offset="0" />
      <stop
         id="stop4293"
         style="stop-color:#f7bc0c;stop-opacity:1"
         offset="1" />
    </linearGradient>
    <clipPath
       id="clipPath3253">
      <path
         d="m 443.04372,299.11668 c 0,0 -11.66726,19.44544 -13.43503,31.46625 6.36397,3.71232 10.96016,14.14214 10.96016,14.14214 0,0 9.72272,-9.72272 9.72272,-11.49048 0,-1.76777 -1.76777,-29.87527 -7.24785,-34.11791 z"
         id="path3255"
         style="fill:#f7c71b;fill-opacity:1;stroke:none" />
    </clipPath>
    <clipPath
       id="clipPath3499">
      <path
         d="m 483.79372,299.11668 c 0,0 -11.66726,19.44544 -13.43503,31.46625 6.36397,3.71232 10.96016,14.14214 10.96016,14.14214 0,0 9.72272,-9.72272 9.72272,-11.49048 0,-1.76777 -1.76777,-29.87527 -7.24785,-34.11791 z"
         id="path3501"
         style="fill:#f7c71b;fill-opacity:1;stroke:none" />
    </clipPath>
    <linearGradient
       x1="482"
       y1="325.61218"
       x2="482"
       y2="301.61218"
       id="linearGradient4351"
       xlink:href="#linearGradient4289"
       gradientUnits="userSpaceOnUse"
       gradientTransform="matrix(1.2569611,0,0,1.2569611,-176.42066,-107.45492)" />
    <clipPath
       id="clipPath4521">
      <rect
         width="128"
         height="128"
         x="324.6875"
         y="251.37495"
         id="rect4523"
         style="fill:#019431;fill-opacity:1;stroke:none" />
    </clipPath>
  </defs>
  <metadata
     id="metadata7">
    <rdf:RDF>
      <cc:Work
         rdf:about="">
        <dc:format>image/svg+xml</dc:format>
        <dc:type
           rdf:resource="http://purl.org/dc/dcmitype/StillImage" />
        <dc:title></dc:title>
      </cc:Work>
    </rdf:RDF>
  </metadata>
  <g
     transform="translate(-324.6875,-251.37495)"
     id="layer1">
    <g
       clip-path="url(#clipPath4521)"
       id="g4485"
       style="opacity:0.5;fill:#fcd20e;fill-opacity:1;stroke:#d5a61b;stroke-opacity:1">
      <g
         transform="translate(-216,-22)"
         id="g4461"
         style="fill:#fcd20e;fill-opacity:1;stroke:#d5a61b;stroke-opacity:1">
        <path
           d="m 510.18748,264.37495 22.5,39.79529 22.5,-39.79529 -22.5,0 -22.5,0 z"
           id="path4375"
           style="fill:#fcd20e;fill-opacity:1;stroke:#d5a61b;stroke-width:1;stroke-linecap:butt;stroke-linejoin:miter;stroke-miterlimit:4;stroke-opacity:1;stroke-dasharray:none" />
        <path
           d="m 556.18748,264.37495 22.5,39.79529 22.5,-39.79529 -22.5,0 -22.5,0 z"
           id="path4381"
           style="fill:#fcd20e;fill-opacity:1;stroke:#d5a61b;stroke-width:1;stroke-linecap:butt;stroke-linejoin:miter;stroke-miterlimit:4;stroke-opacity:1;stroke-dasharray:none" />
        <path
           d="m 602.18748,264.37495 22.5,39.79529 22.5,-39.79529 -22.5,0 -22.5,0 z"
           id="path4383"
           style="fill:#fcd20e;fill-opacity:1;stroke:#d5a61b;stroke-width:1;stroke-linecap:butt;stroke-linejoin:miter;stroke-miterlimit:4;stroke-opacity:1;stroke-dasharray:none" />
        <path
           d="m 648.18748,264.37495 22.5,39.79529 22.5,-39.79529 -22.5,0 -22.5,0 z"
           id="path4385"
           style="fill:#fcd20e;fill-opacity:1;stroke:#d5a61b;stroke-width:1;stroke-linecap:butt;stroke-linejoin:miter;stroke-miterlimit:4;stroke-opacity:1;stroke-dasharray:none" />
        <path
           d="m 716.18748,304.37495 -22.5,39.79529 -22.5,-39.79529 22.5,0 22.5,0 z"
           id="path4395"
           style="fill:#fcd20e;fill-opacity:1;stroke:#d5a61b;stroke-width:1;stroke-linecap:butt;stroke-linejoin:miter;stroke-miterlimit:4;stroke-opacity:1;stroke-dasharray:none" />
        <path
           d="m 670.18748,304.37495 -22.5,39.79529 -22.5,-39.79529 22.5,0 22.5,0 z"
           id="path4397"
           style="fill:#fcd20e;fill-opacity:1;stroke:#d5a61b;stroke-width:1;stroke-linecap:butt;stroke-linejoin:miter;stroke-miterlimit:4;stroke-opacity:1;stroke-dasharray:none" />
        <path
           d="m 624.18748,304.37495 -22.5,39.79529 -22.5,-39.79529 22.5,0 22.5,0 z"
           id="path4399"
           style="fill:#fcd20e;fill-opacity:1;stroke:#d5a61b;stroke-width:1;stroke-linecap:butt;stroke-linejoin:miter;stroke-miterlimit:4;stroke-opacity:1;stroke-dasharray:none" />
        <path
           d="m 578.18748,304.37495 -22.5,39.79529 -22.5,-39.79529 22.5,0 22.5,0 z"
           id="path4401"
           style="fill:#fcd20e;fill-opacity:1;stroke:#d5a61b;stroke-width:1;stroke-linecap:butt;stroke-linejoin:miter;stroke-miterlimit:4;stroke-opacity:1;stroke-dasharray:none" />
        <path
           d="m 694.18748,344.37495 -22.5,39.79529 -22.5,-39.79529 22.5,0 22.5,0 z"
           id="path4411"
           style="fill:#fcd20e;fill-opacity:1;stroke:#d5a61b;stroke-width:1;stroke-linecap:butt;stroke-linejoin:miter;stroke-miterlimit:4;stroke-opacity:1;stroke-dasharray:none" />
        <path
           d="m 648.18748,344.37495 -22.5,39.79529 -22.5,-39.79529 22.5,0 22.5,0 z"
           id="path4413"
           style="fill:#fcd20e;fill-opacity:1;stroke:#d5a61b;stroke-width:1;stroke-linecap:butt;stroke-linejoin:miter;stroke-miterlimit:4;stroke-opacity:1;stroke-dasharray:none" />
        <path
           d="m 602.18748,344.37495 -22.5,39.79529 -22.5,-39.79529 22.5,0 22.5,0 z"
           id="path4415"
           style="fill:#fcd20e;fill-opacity:1;stroke:#d5a61b;stroke-width:1;stroke-linecap:butt;stroke-linejoin:miter;stroke-miterlimit:4;stroke-opacity:1;stroke-dasharray:none" />
        <path
           d="m 556.18748,344.37495 -22.5,39.79529 -22.5,-39.79529 22.5,0 22.5,0 z"
           id="path4417"
           style="fill:#fcd20e;fill-opacity:1;stroke:#d5a61b;stroke-width:1;stroke-linecap:butt;stroke-linejoin:miter;stroke-miterlimit:4;stroke-opacity:1;stroke-dasharray:none" />
        <path
           d="m 488.18748,384.37495 22.5,39.79529 22.5,-39.79529 -22.5,0 -22.5,0 z"
           id="path4427"
           style="fill:#fcd20e;fill-opacity:1;stroke:#d5a61b;stroke-width:1;stroke-linecap:butt;stroke-linejoin:miter;stroke-miterlimit:4;stroke-opacity:1;stroke-dasharray:none" />
        <path
           d="m 534.18748,384.37495 22.5,39.79529 22.5,-39.79529 -22.5,0 -22.5,0 z"
           id="path4429"
           style="fill:#fcd20e;fill-opacity:1;stroke:#d5a61b;stroke-width:1;stroke-linecap:butt;stroke-linejoin:miter;stroke-miterlimit:4;stroke-opacity:1;stroke-dasharray:none" />
        <path
           d="m 580.18748,384.37495 22.5,39.79529 22.5,-39.79529 -22.5,0 -22.5,0 z"
           id="path4431"
           style="fill:#fcd20e;fill-opacity:1;stroke:#d5a61b;stroke-width:1;stroke-linecap:butt;stroke-linejoin:miter;stroke-miterlimit:4;stroke-opacity:1;stroke-dasharray:none" />
        <path
           d="m 626.18748,384.37495 22.5,39.79529 22.5,-39.79529 -22.5,0 -22.5,0 z"
           id="path4433"
           style="fill:#fcd20e;fill-opacity:1;stroke:#d5a61b;stroke-width:1;stroke-linecap:butt;stroke-linejoin:miter;stroke-miterlimit:4;stroke-opacity:1;stroke-dasharray:none" />
      </g>
      <g
         transform="translate(-216,-22)"
         id="g4443"
         style="fill:#fcd20e;fill-opacity:1;stroke:#d5a61b;stroke-opacity:1">
        <path
           d="m 533.18748,304.17024 22.5,-39.79529 22.5,39.79529 -22.5,0 -22.5,0 z"
           id="path4387"
           style="fill:#fcd20e;fill-opacity:1;stroke:#d5a61b;stroke-opacity:1" />
        <path
           d="m 579.18748,304.17024 22.5,-39.79529 22.5,39.79529 -22.5,0 -22.5,0 z"
           id="path4389"
           style="fill:#fcd20e;fill-opacity:1;stroke:#d5a61b;stroke-opacity:1" />
        <path
           d="m 625.18748,304.17024 22.5,-39.79529 22.5,39.79529 -22.5,0 -22.5,0 z"
           id="path4391"
           style="fill:#fcd20e;fill-opacity:1;stroke:#d5a61b;stroke-opacity:1" />
        <path
           d="m 671.18748,304.17024 22.5,-39.79529 22.5,39.79529 -22.5,0 -22.5,0 z"
           id="path4393"
           style="fill:#fcd20e;fill-opacity:1;stroke:#d5a61b;stroke-opacity:1" />
        <path
           d="m 693.18748,344.17024 -22.5,-39.79529 -22.5,39.79529 22.5,0 22.5,0 z"
           id="path4403"
           style="fill:#fcd20e;fill-opacity:1;stroke:#d5a61b;stroke-width:1;stroke-linecap:butt;stroke-linejoin:miter;stroke-miterlimit:4;stroke-opacity:1;stroke-dasharray:none" />
        <path
           d="m 647.18748,344.17024 -22.5,-39.79529 -22.5,39.79529 22.5,0 22.5,0 z"
           id="path4405"
           style="fill:#fcd20e;fill-opacity:1;stroke:#d5a61b;stroke-width:1;stroke-linecap:butt;stroke-linejoin:miter;stroke-miterlimit:4;stroke-opacity:1;stroke-dasharray:none" />
        <path
           d="m 601.18748,344.17024 -22.5,-39.79529 -22.5,39.79529 22.5,0 22.5,0 z"
           id="path4407"
           style="fill:#fcd20e;fill-opacity:1;stroke:#d5a61b;stroke-width:1;stroke-linecap:butt;stroke-linejoin:miter;stroke-miterlimit:4;stroke-opacity:1;stroke-dasharray:none" />
        <path
           d="m 555.18748,344.17024 -22.5,-39.79529 -22.5,39.79529 22.5,0 22.5,0 z"
           id="path4409"
           style="fill:#fcd20e;fill-opacity:1;stroke:#d5a61b;stroke-width:1;stroke-linecap:butt;stroke-linejoin:miter;stroke-miterlimit:4;stroke-opacity:1;stroke-dasharray:none" />
        <path
           d="m 671.18748,384.17024 -22.5,-39.79529 -22.5,39.79529 22.5,0 22.5,0 z"
           id="path4419"
           style="fill:#fcd20e;fill-opacity:1;stroke:#d5a61b;stroke-width:1;stroke-linecap:butt;stroke-linejoin:miter;stroke-miterlimit:4;stroke-opacity:1;stroke-dasharray:none" />
        <path
           d="m 625.18748,384.17024 -22.5,-39.79529 -22.5,39.79529 22.5,0 22.5,0 z"
           id="path4421"
           style="fill:#fcd20e;fill-opacity:1;stroke:#d5a61b;stroke-width:1;stroke-linecap:butt;stroke-linejoin:miter;stroke-miterlimit:4;stroke-opacity:1;stroke-dasharray:none" />
        <path
           d="m 579.18748,384.17024 -22.5,-39.79529 -22.5,39.79529 22.5,0 22.5,0 z"
           id="path4423"
           style="fill:#fcd20e;fill-opacity:1;stroke:#d5a61b;stroke-width:1;stroke-linecap:butt;stroke-linejoin:miter;stroke-miterlimit:4;stroke-opacity:1;stroke-dasharray:none" />
        <path
           d="m 533.18748,384.17024 -22.5,-39.79529 -22.5,39.79529 22.5,0 22.5,0 z"
           id="path4425"
           style="fill:#fcd20e;fill-opacity:1;stroke:#d5a61b;stroke-width:1;stroke-linecap:butt;stroke-linejoin:miter;stroke-miterlimit:4;stroke-opacity:1;stroke-dasharray:none" />
        <path
           d="m 511.18748,424.17024 22.5,-39.79529 22.5,39.79529 -22.5,0 -22.5,0 z"
           id="path4435"
           style="fill:#fcd20e;fill-opacity:1;stroke:#d5a61b;stroke-width:1;stroke-linecap:butt;stroke-linejoin:miter;stroke-miterlimit:4;stroke-opacity:1;stroke-dasharray:none" />
        <path
           d="m 557.18748,424.17024 22.5,-39.79529 22.5,39.79529 -22.5,0 -22.5,0 z"
           id="path4437"
           style="fill:#fcd20e;fill-opacity:1;stroke:#d5a61b;stroke-width:1;stroke-linecap:butt;stroke-linejoin:miter;stroke-miterlimit:4;stroke-opacity:1;stroke-dasharray:none" />
        <path
           d="m 603.18748,424.17024 22.5,-39.79529 22.5,39.79529 -22.5,0 -22.5,0 z"
           id="path4439"
           style="fill:#fcd20e;fill-opacity:1;stroke:#d5a61b;stroke-width:1;stroke-linecap:butt;stroke-linejoin:miter;stroke-miterlimit:4;stroke-opacity:1;stroke-dasharray:none" />
        <path
           d="m 649.18748,424.17024 22.5,-39.79529 22.5,39.79529 -22.5,0 -22.5,0 z"
           id="path4441"
           style="fill:#fcd20e;fill-opacity:1;stroke:#d5a61b;stroke-width:1;stroke-linecap:butt;stroke-linejoin:miter;stroke-miterlimit:4;stroke-opacity:1;stroke-dasharray:none" />
      </g>
    </g>
    <path
       d="m 398.79617,261.34526 c -5.49718,1.13998 -5.86528,8.41262 -8.64161,12.45177 -4.22168,8.07908 -7.00672,17.33673 -13.74801,23.76442 -4.39673,3.8298 -11.26261,3.21801 -14.84785,8.24881 -7.01027,7.27992 -10.95216,17.94091 -20.70058,22.2325 -3.59903,0.89217 -6.87611,3.24413 -7.85601,6.16697 0.87275,0.14959 2.52557,0.20394 4.20296,0.1964 1.01699,0.0138 2.05066,-0.12645 3.06385,0 0,0 1.21586,0.99781 0.15712,1.88544 -0.4483,0.11329 -0.88368,0.34168 -1.21768,0.66776 -1.36645,1.34194 -3.52464,4.13475 -4.32081,5.85272 -0.007,-0.0315 -0.03,-0.084 -0.0393,-0.11784 0.50293,4.01641 3.20213,7.31951 6.12769,10.09497 0.5393,-0.10634 1.43275,-0.26417 1.92472,-0.43208 1.25617,-0.52341 4.11115,-1.12949 6.87401,-4.04584 l 0.51064,0.66776 c -2.89348,3.05421 -5.10562,4.49069 -6.67761,5.14568 -0.33623,0.1401 -0.63066,0.23578 -0.90344,0.31424 1.21702,1.29196 2.36792,2.70672 3.77088,3.61377 10.024,1.0258 20.6404,0.78528 29.93139,4.98856 1.01418,0.69084 2.05898,1.33618 3.1424,1.92472 0.0156,0.009 0.0237,0.0309 0.0393,0.0392 0.96652,1.0637 2.23718,1.47582 3.61376,1.68904 4.2801,1.74486 8.95858,2.71039 13.86586,2.71039 13.03953,0 24.46436,-6.81224 30.99194,-17.04754 0.21821,-0.2417 0.45292,-0.46267 0.66776,-0.70704 0.18298,-0.45981 0.39185,-0.91719 0.5892,-1.3748 0.0184,-0.0426 0.0601,-0.0752 0.0786,-0.11784 0.95516,-1.75828 1.77354,-3.62176 2.43537,-5.53849 0.004,-0.0113 -0.004,-0.0277 0,-0.0393 0.13971,-0.34815 0.22514,-0.71066 0.35352,-1.06056 0.16262,-0.44328 0.33231,-0.88863 0.47136,-1.33552 l 0,-0.15712 c 0.78833,-2.99542 1.1784,-6.14498 1.1784,-9.38793 0,-1.66111 -0.1401,-3.30725 -0.35352,-4.91 6.41413,-10.12363 12.28824,-6.79962 11.03769,-21.8397 -0.55092,-12.67853 -3.16609,-25.30138 -7.46321,-37.23747 -0.96776,-6.11004 -8.91577,-10.18606 -12.76601,-3.96729 -4.75934,6.95238 -9.44014,13.97456 -14.41577,20.77914 -1.07348,-7.87971 -2.45506,-16.30668 -7.85601,-22.46818 -0.87953,-0.83117 -1.97744,-1.5784 -3.22096,-1.64976 z m -66.1083,74.55351 c -0.0172,1.48195 0.56312,3.05105 2.00328,4.63504 0.69146,-1.51451 1.4889,-2.98714 2.59248,-4.24224 -0.9781,0.016 -1.96964,0.0446 -2.946,-0.0393 -0.55285,-0.0816 -1.13726,-0.11675 -1.64976,-0.35352 z"
       id="path3163"
       style="fill:#000000" />
    <path
       d="m 431.68923,268.52311 c 0,0 -14.66529,24.44216 -16.88731,39.55185 7.99926,4.66625 13.7765,17.77612 13.7765,17.77612 0,0 12.22108,-12.22108 12.22108,-14.44308 0,-2.22202 -2.22202,-37.55206 -9.11027,-42.88489 z"
       id="path3184"
       style="fill:url(#linearGradient4351);fill-opacity:1;stroke:none" />
    <g
       id="g4360">
      <path
         d="m 386.03746,320.05612 c -6.49171,7.04711 -14.37358,4.58158 -23.77172,5.41738 0,-5.85536 7.30324,-10.62579 14.88052,-10.13437 8.491,1.16484 10.58373,3.38526 10.58373,3.38526 -0.12695,0.22981 -1.14629,0.81863 -1.69253,1.33173 z"
         id="path3415"
         style="fill:#ffffff;stroke:none" />
      <path
         d="m 439.9972,338.36111 a 3.5355339,5.4800777 0 1 1 -7.07106,0 3.5355339,5.4800777 0 1 1 7.07106,0 z"
         transform="matrix(1.0055689,0,0,1.2569611,-66.91979,-107.23272)"
         id="path3453"
         style="fill:#000000;fill-opacity:1;stroke:none" />
    </g>
    <g
       id="g4355">
      <path
         d="m 360.61597,331.20839 c 0.20578,-11.35095 8.79589,-17.46052 16.53029,-15.86926 8.34588,0.9166 16.34791,5.71722 24.93006,3.78392 l 0.81373,-0.28007 0.77689,-0.36073"
         id="path3257"
         style="fill:none;stroke:#f7c71b;stroke-width:1.5;stroke-linecap:butt;stroke-linejoin:miter;stroke-miterlimit:4;stroke-opacity:1;stroke-dasharray:none" />
      <path
         d="m 361.71581,326.02343 c 5.78439,-1.08407 17.82994,1.0798 24.32165,-5.96731 l 0.82034,-0.77057 0.78272,-0.80389"
         id="path3261"
         style="fill:none;stroke:#f7c71b;stroke-width:1px;stroke-linecap:butt;stroke-linejoin:miter;stroke-opacity:1" />
      <path
         d="m 389.15357,322.97164 c 0.16908,-0.7766 1.21578,-0.80639 1.77464,-0.46782 1.07924,0.65381 1.05288,2.15388 0.32821,3.05131 -1.09684,1.35836 -3.18526,1.27423 -4.43443,0.17735 -1.69323,-1.48679 -1.54449,-4.11342 -0.0327,-5.66549 1.9228,-1.97401 5.18788,-1.76405 7.0942,0.11312 2.32579,2.2902 2.04643,6.08597 -0.26284,8.27968 -2.73602,2.5991 -7.99547,2.82423 -9.75401,-0.40357 -2.62725,-4.82234 -10.51021,-2.52655 -10.51021,-2.52655 6.07245,0.73196 0.57367,7.99302 4.96284,9.68515"
         id="path3297"
         style="fill:none;stroke:#f7c71b;stroke-width:1.5;stroke-linecap:butt;stroke-linejoin:miter;stroke-miterlimit:4;stroke-opacity:1;stroke-dasharray:none" />
    </g>
    <g
       transform="matrix(1.2569611,0,0,1.2569611,-176.42066,-107.45492)"
       clip-path="url(#clipPath3499)"
       id="g3487"
       style="stroke:#c2931b;stroke-width:1.19335437;stroke-miterlimit:4;stroke-opacity:1;stroke-dasharray:none">
      <path
         d="m 491.75,297.11218 a 13.125,19.75 0 1 1 -26.25,0 13.125,19.75 0 1 1 26.25,0 z"
         transform="translate(-14,-12)"
         id="path3471"
         style="fill:none;stroke:#c2931b;stroke-width:1.19335437;stroke-miterlimit:4;stroke-opacity:1;stroke-dasharray:none" />
      <path
         d="m 491.75,297.11218 a 13.125,19.75 0 1 1 -26.25,0 13.125,19.75 0 1 1 26.25,0 z"
         transform="matrix(1.1537919,0,0,1.1518987,-85.590124,-54.130964)"
         id="path3473"
         style="fill:none;stroke:#c2931b;stroke-width:1.03513873;stroke-miterlimit:4;stroke-opacity:1;stroke-dasharray:none" />
      <path
         d="m 491.75,297.11218 a 13.125,19.75 0 1 1 -26.25,0 13.125,19.75 0 1 1 26.25,0 z"
         transform="matrix(1.3972957,0,0,1.392405,-198.94116,-120.83832)"
         id="path3475"
         style="fill:none;stroke:#c2931b;stroke-width:0.85554421;stroke-miterlimit:4;stroke-opacity:1;stroke-dasharray:none" />
      <path
         d="m 491.75,297.11218 a 13.125,19.75 0 1 1 -26.25,0 13.125,19.75 0 1 1 26.25,0 z"
         transform="matrix(1.6664315,0,0,1.6582278,-324.22388,-194.56751)"
         id="path3477"
         style="fill:none;stroke:#c2931b;stroke-width:0.71788287;stroke-miterlimit:4;stroke-opacity:1;stroke-dasharray:none" />
      <path
         d="m 491.75,297.11218 a 13.125,19.75 0 1 1 -26.25,0 13.125,19.75 0 1 1 26.25,0 z"
         transform="matrix(1.5318636,0,0,1.5253164,-261.58252,-157.70292)"
         id="path3479"
         style="fill:none;stroke:#c2931b;stroke-width:0.78069144;stroke-miterlimit:4;stroke-opacity:1;stroke-dasharray:none" />
      <path
         d="m 491.75,297.11218 a 13.125,19.75 0 1 1 -26.25,0 13.125,19.75 0 1 1 26.25,0 z"
         transform="matrix(1.2842446,0,0,1.2807455,-146.31585,-89.868204)"
         id="path3481"
         style="fill:none;stroke:#c2931b;stroke-width:0.93049514;stroke-miterlimit:4;stroke-opacity:1;stroke-dasharray:none" />
      <path
         d="m 491.75,297.11218 a 13.125,19.75 0 1 1 -26.25,0 13.125,19.75 0 1 1 26.25,0 z"
         transform="matrix(1.0768959,0,0,1.0759494,-49.795062,-33.065482)"
         id="path3483"
         style="fill:none;stroke:#c2931b;stroke-width:1.10863006;stroke-miterlimit:4;stroke-opacity:1;stroke-dasharray:none" />
      <path
         d="m 491.75,297.11218 a 13.125,19.75 0 1 1 -26.25,0 13.125,19.75 0 1 1 26.25,0 z"
         transform="matrix(1.8458554,0,0,1.835443,-407.74569,-243.7203)"
         id="path3485"
         style="fill:none;stroke:#c2931b;stroke-width:0.64833599;stroke-miterlimit:4;stroke-opacity:1;stroke-dasharray:none" />
    </g>
  </g>
</svg>
